<?xml version="1.0" encoding="UTF-8" standalone="no"?>
<svg xmlns="http://www.w3.org/2000/svg" version="1.2" baseProfile="tiny" viewBox="0 0 512 512">
<g stroke-width="2.0" fill="none" stroke-linecap="butt">
<path stroke="#c78e8e" vector-effect="non-scaling-stroke" d="
  M 257.50 475.21
  Q 258.16 475.25 260.75 474.50
  Q 327.44 455.27 393.78 435.90
  C 394.31 435.75 394.72 435.32 394.85 434.78
  L 474.76 115.44
  C 474.84 115.12 474.62 114.80 474.29 114.76
  Q 473.32 114.65 472.00 114.24
  Q 365.60 81.02 259.00 48.46"
/>
<path stroke="#d99191" vector-effect="non-scaling-stroke" d="
  M 259.00 48.46
  Q 258.35 48.09 257.19 48.44
  Q 149.11 80.33 40.93 112.35
  C 40.66 112.43 40.50 112.71 40.57 112.98
  L 125.73 435.12
  C 125.87 435.64 126.27 436.05 126.78 436.20
  L 257.50 475.21"
/>
<path stroke="#a11f1f" vector-effect="non-scaling-stroke" d="
  M 259.00 48.46
  Q 258.44 48.58 258.18 49.03
  C 258.05 49.23 258.05 49.58 258.17 49.97
  Q 258.50 51.10 258.50 53.00
  Q 258.50 262.75 258.50 472.50
  Q 258.50 473.26 257.50 475.21"
/>
<path stroke="#d99191" vector-effect="non-scaling-stroke" d="
  M 214.18 124.81
  L 212.06 382.77
  C 212.05 383.06 211.78 383.26 211.50 383.17
  L 165.72 368.74
  C 165.41 368.65 165.18 368.40 165.09 368.09
  L 152.95 323.58
  C 152.83 323.12 152.35 322.84 151.89 322.97
  L 121.30 331.37
  C 120.98 331.46 120.79 331.79 120.88 332.11
  L 137.69 393.74
  C 137.85 394.33 138.29 394.79 138.87 394.97
  L 244.26 428.75
  C 244.50 428.83 244.75 428.65 244.75 428.40
  Q 245.70 320.38 246.68 212.25
  Q 247.27 147.88 247.25 81.87
  C 247.25 81.42 246.82 81.09 246.39 81.21
  L 68.04 127.69
  C 67.78 127.76 67.62 128.03 67.69 128.30
  L 75.77 159.52
  C 75.84 159.77 76.09 159.92 76.34 159.86
  Q 142.81 142.84 208.75 125.50
  Q 212.12 124.61 213.69 124.38
  C 213.95 124.34 214.19 124.54 214.18 124.81"
/>
<path stroke="#c78e8e" vector-effect="non-scaling-stroke" d="
  M 305.30 254.19
  L 409.99 281.19
  C 410.41 281.30 410.82 281.05 410.93 280.65
  L 418.83 249.55
  C 418.90 249.28 418.73 249.00 418.45 248.93
  L 305.59 219.68
  C 304.95 219.51 304.50 218.94 304.49 218.28
  L 303.81 125.32
  C 303.81 125.07 304.05 124.88 304.30 124.94
  L 442.06 160.72
  C 442.38 160.80 442.71 160.61 442.79 160.29
  L 450.82 129.24
  C 450.89 128.97 450.72 128.69 450.45 128.62
  Q 404.41 116.49 358.73 104.48
  Q 350.54 102.33 339.35 99.52
  Q 305.07 90.92 271.00 81.50
  C 270.75 81.43 270.50 81.62 270.50 81.88
  Q 270.41 139.15 270.96 196.31
  Q 271.05 205.70 271.02 216.32
  Q 270.89 261.66 271.79 307.00
  Q 272.01 317.93 272.07 326.99
  Q 272.40 377.34 272.76 428.55
  C 272.76 429.10 273.29 429.48 273.81 429.32
  Q 289.54 424.42 305.46 418.37
  C 305.75 418.26 305.94 417.99 305.93 417.69
  L 304.81 254.56
  C 304.81 254.31 305.05 254.12 305.30 254.19"
/>
</g>
<path fill="#ffffff" d="
  M 18.51 96.57
  C 18.59 96.18 18.88 95.87 19.26 95.75
  Q 131.94 62.51 244.78 29.06
  Q 244.85 29.04 249.76 27.36
  Q 258.11 24.49 266.50 27.00
  Q 382.14 61.62 498.50 95.65
  C 498.85 95.75 499.12 96.03 499.20 96.39
  Q 500.55 102.06 498.93 107.54
  Q 497.76 111.48 497.75 111.52
  Q 457.14 276.25 416.73 441.03
  Q 416.71 441.12 416.07 445.02
  Q 415.49 448.55 413.06 450.89
  Q 411.41 452.47 407.45 453.67
  Q 336.40 475.14 265.31 496.48
  Q 262.75 497.25 260.08 497.25
  Q 257.51 497.25 254.72 497.25
  Q 253.71 497.25 252.76 496.93
  Q 242.60 493.49 233.60 490.81
  Q 173.56 472.94 113.56 454.94
  Q 110.05 453.88 108.26 452.94
  C 107.97 452.79 107.74 452.54 107.59 452.23
  Q 105.64 448.21 104.59 443.89
  Q 103.22 438.24 103.20 438.16
  Q 101.21 430.90 97.19 415.06
  Q 59.50 266.63 21.81 118.19
  Q 20.32 112.29 19.20 108.65
  Q 18.03 104.81 17.97 102.70
  Q 17.88 99.70 18.51 96.57
  Z
  M 257.50 475.21
  Q 258.16 475.25 260.75 474.50
  Q 327.44 455.27 393.78 435.90
  C 394.31 435.75 394.72 435.32 394.85 434.78
  L 474.76 115.44
  C 474.84 115.12 474.62 114.80 474.29 114.76
  Q 473.32 114.65 472.00 114.24
  Q 365.60 81.02 259.00 48.46
  Q 258.35 48.09 257.19 48.44
  Q 149.11 80.33 40.93 112.35
  C 40.66 112.43 40.50 112.71 40.57 112.98
  L 125.73 435.12
  C 125.87 435.64 126.27 436.05 126.78 436.20
  L 257.50 475.21
  Z"
/>
<path fill="#b22222" d="
  M 259.00 48.46
  Q 258.44 48.58 258.18 49.03
  C 258.05 49.23 258.05 49.58 258.17 49.97
  Q 258.50 51.10 258.50 53.00
  Q 258.50 262.75 258.50 472.50
  Q 258.50 473.26 257.50 475.21
  L 126.78 436.20
  C 126.27 436.05 125.87 435.64 125.73 435.12
  L 40.57 112.98
  C 40.50 112.71 40.66 112.43 40.93 112.35
  Q 149.11 80.33 257.19 48.44
  Q 258.35 48.09 259.00 48.46
  Z
  M 214.18 124.81
  L 212.06 382.77
  C 212.05 383.06 211.78 383.26 211.50 383.17
  L 165.72 368.74
  C 165.41 368.65 165.18 368.40 165.09 368.09
  L 152.95 323.58
  C 152.83 323.12 152.35 322.84 151.89 322.97
  L 121.30 331.37
  C 120.98 331.46 120.79 331.79 120.88 332.11
  L 137.69 393.74
  C 137.85 394.33 138.29 394.79 138.87 394.97
  L 244.26 428.75
  C 244.50 428.83 244.75 428.65 244.75 428.40
  Q 245.70 320.38 246.68 212.25
  Q 247.27 147.88 247.25 81.87
  C 247.25 81.42 246.82 81.09 246.39 81.21
  L 68.04 127.69
  C 67.78 127.76 67.62 128.03 67.69 128.30
  L 75.77 159.52
  C 75.84 159.77 76.09 159.92 76.34 159.86
  Q 142.81 142.84 208.75 125.50
  Q 212.12 124.61 213.69 124.38
  C 213.95 124.34 214.19 124.54 214.18 124.81
  Z"
/>
<path fill="#8f1c1c" d="
  M 259.00 48.46
  Q 365.60 81.02 472.00 114.24
  Q 473.32 114.65 474.29 114.76
  C 474.62 114.80 474.84 115.12 474.76 115.44
  L 394.85 434.78
  C 394.72 435.32 394.31 435.75 393.78 435.90
  Q 327.44 455.27 260.75 474.50
  Q 258.16 475.25 257.50 475.21
  Q 258.50 473.26 258.50 472.50
  Q 258.50 262.75 258.50 53.00
  Q 258.50 51.10 258.17 49.97
  C 258.05 49.58 258.05 49.23 258.18 49.03
  Q 258.44 48.58 259.00 48.46
  Z
  M 305.30 254.19
  L 409.99 281.19
  C 410.41 281.30 410.82 281.05 410.93 280.65
  L 418.83 249.55
  C 418.90 249.28 418.73 249.00 418.45 248.93
  L 305.59 219.68
  C 304.95 219.51 304.50 218.94 304.49 218.28
  L 303.81 125.32
  C 303.81 125.07 304.05 124.88 304.30 124.94
  L 442.06 160.72
  C 442.38 160.80 442.71 160.61 442.79 160.29
  L 450.82 129.24
  C 450.89 128.97 450.72 128.69 450.45 128.62
  Q 404.41 116.49 358.73 104.48
  Q 350.54 102.33 339.35 99.52
  Q 305.07 90.92 271.00 81.50
  C 270.75 81.43 270.50 81.62 270.50 81.88
  Q 270.41 139.15 270.96 196.31
  Q 271.05 205.70 271.02 216.32
  Q 270.89 261.66 271.79 307.00
  Q 272.01 317.93 272.07 326.99
  Q 272.40 377.34 272.76 428.55
  C 272.76 429.10 273.29 429.48 273.81 429.32
  Q 289.54 424.42 305.46 418.37
  C 305.75 418.26 305.94 417.99 305.93 417.69
  L 304.81 254.56
  C 304.81 254.31 305.05 254.12 305.30 254.19
  Z"
/>
<path fill="#ffffff" d="
  M 213.69 124.38
  Q 212.12 124.61 208.75 125.50
  Q 142.81 142.84 76.34 159.86
  C 76.09 159.92 75.84 159.77 75.77 159.52
  L 67.69 128.30
  C 67.62 128.03 67.78 127.76 68.04 127.69
  L 246.39 81.21
  C 246.82 81.09 247.25 81.42 247.25 81.87
  Q 247.27 147.88 246.68 212.25
  Q 245.70 320.38 244.75 428.40
  C 244.75 428.65 244.50 428.83 244.26 428.75
  L 138.87 394.97
  C 138.29 394.79 137.85 394.33 137.69 393.74
  L 120.88 332.11
  C 120.79 331.79 120.98 331.46 121.30 331.37
  L 151.89 322.97
  C 152.35 322.84 152.83 323.12 152.95 323.58
  L 165.09 368.09
  C 165.18 368.40 165.41 368.65 165.72 368.74
  L 211.50 383.17
  C 211.78 383.26 212.05 383.06 212.06 382.77
  L 214.18 124.81
  C 214.19 124.54 213.95 124.34 213.69 124.38
  Z"
/>
<path fill="#ffffff" d="
  M 304.81 254.56
  L 305.93 417.69
  C 305.94 417.99 305.75 418.26 305.46 418.37
  Q 289.54 424.42 273.81 429.32
  C 273.29 429.48 272.76 429.10 272.76 428.55
  Q 272.40 377.34 272.07 326.99
  Q 272.01 317.93 271.79 307.00
  Q 270.89 261.66 271.02 216.32
  Q 271.05 205.70 270.96 196.31
  Q 270.41 139.15 270.50 81.88
  C 270.50 81.62 270.75 81.43 271.00 81.50
  Q 305.07 90.92 339.35 99.52
  Q 350.54 102.33 358.73 104.48
  Q 404.41 116.49 450.45 128.62
  C 450.72 128.69 450.89 128.97 450.82 129.24
  L 442.79 160.29
  C 442.71 160.61 442.38 160.80 442.06 160.72
  L 304.30 124.94
  C 304.05 124.88 303.81 125.07 303.81 125.32
  L 304.49 218.28
  C 304.50 218.94 304.95 219.51 305.59 219.68
  L 418.45 248.93
  C 418.73 249.00 418.90 249.28 418.83 249.55
  L 410.93 280.65
  C 410.82 281.05 410.41 281.30 409.99 281.19
  L 305.30 254.19
  C 305.05 254.12 304.81 254.31 304.81 254.56
  Z"
/>
</svg>
