<?xml version="1.0" standalone="no"?>
<!DOCTYPE svg PUBLIC "-//W3C//DTD SVG 20010904//EN"
 "http://www.w3.org/TR/2001/REC-SVG-20010904/DTD/svg10.dtd">
<svg version="1.0" xmlns="http://www.w3.org/2000/svg"
 width="512.000000pt" height="512.000000pt" viewBox="0 0 512.000000 512.000000"
 preserveAspectRatio="xMidYMid meet">

<g transform="translate(0.000000,512.000000) scale(0.100000,-0.100000)" fill="white" stroke="none">
<path d="M1500 4317 c-597 -176 -1087 -321 -1089 -323 -2 -2 19 -90 47 -196
41 -155 756 -2863 793 -2999 5 -21 17 -39 27 -42 9 -2 305 -91 657 -196 592
-178 643 -191 680 -182 105 26 1321 383 1327 389 4 4 187 726 406 1604 l399
1598 -31 9 c-33 9 -2063 636 -2106 650 -20 7 -264 -62 -1110 -312z m970 -564
c0 -551 -20 -2916 -24 -2921 -3 -2 -295 92 -890 285 l-179 58 -85 313 c-47
172 -83 314 -81 317 9 8 310 87 315 82 3 -3 32 -103 65 -224 33 -120 63 -221
67 -225 6 -5 144 -50 443 -143 15 -5 17 64 23 792 3 439 9 1022 12 1295 l7
498 -49 -15 c-27 -7 -224 -59 -439 -115 -214 -56 -502 -130 -639 -166 -137
-36 -252 -61 -256 -57 -15 17 -83 304 -74 312 9 9 178 54 1114 296 261 68 513
135 560 149 47 14 91 25 98 25 9 1 12 -117 12 -556z m376 516 c60 -17 246 -66
414 -109 375 -96 1244 -323 1248 -326 3 -2 -77 -317 -82 -322 -2 -1 -135 32
-297 74 -358 92 -1047 272 -1071 280 -17 5 -18 -18 -17 -403 1 -224 4 -437 8
-473 l6 -65 160 -41 c88 -23 339 -88 557 -145 218 -56 402 -105 408 -109 8 -5
0 -51 -25 -152 -20 -79 -40 -151 -45 -158 -8 -14 -205 34 -874 210 l-189 49 7
-823 8 -823 -165 -55 -165 -56 -6 301 c-5 229 -26 2765 -26 3118 0 71 -4 71
146 28z"/>
</g>
</svg>
